<svg width="61" height="61" viewBox="0 0 61 61" fill="none" xmlns="http://www.w3.org/2000/svg">
<rect x="0.0664062" y="0.0825195" width="60" height="60" rx="30" fill="#F9BABA"/>
<path d="M49.7339 26.9748L45.7448 19.0061C45.562 18.6383 45.3086 18.3102 44.9989 18.0405C44.6893 17.7707 44.3295 17.5647 43.9402 17.4341C43.5508 17.3035 43.1396 17.2509 42.7299 17.2793C42.3202 17.3078 41.9202 17.4167 41.5526 17.5998L37.9307 19.4108L30.6432 17.0483C30.2672 16.9279 29.863 16.9279 29.487 17.0483L22.1995 19.4108L18.5776 17.5998C18.2101 17.4167 17.81 17.3078 17.4003 17.2793C16.9907 17.2509 16.5794 17.3035 16.1901 17.4341C15.8007 17.5647 15.4409 17.7707 15.1313 18.0405C14.8216 18.3102 14.5682 18.6383 14.3854 19.0061L10.3964 26.9748C10.2132 27.3424 10.1043 27.7424 10.0759 28.1521C10.0474 28.5618 10.1 28.973 10.2306 29.3624C10.3612 29.7517 10.5673 30.1115 10.837 30.4211C11.1067 30.7308 11.4349 30.9842 11.8026 31.167L15.9698 33.2514L23.9667 39.0967C24.1561 39.2353 24.3696 39.3375 24.5964 39.3983L34.2839 41.8983C34.4371 41.9373 34.5945 41.9572 34.7526 41.9576C35.2497 41.9572 35.7263 41.7594 36.0776 41.4076L44.2995 33.1858L48.3354 31.167C49.0768 30.7965 49.6406 30.1467 49.9028 29.3605C50.1651 28.5743 50.1043 27.7162 49.7339 26.9748ZM40.6526 31.5295L36.3526 27.467C35.9971 27.1307 35.5243 26.9467 35.035 26.9543C34.5457 26.9619 34.0787 27.1605 33.7339 27.5076C32.2245 29.0295 29.8182 30.1342 27.3573 28.9998L33.3245 23.2186H36.8745L40.9073 31.2858L40.6526 31.5295ZM17.4589 21.2342L19.5323 22.2701L16.0948 29.1295L14.0214 28.0936L17.4589 21.2342ZM34.1776 37.9998L25.8823 35.8639L19.3198 31.0733L23.3729 22.9733L30.0651 20.8029L30.3292 20.8889L24.1276 26.9076L24.1073 26.9264C23.7768 27.2572 23.5248 27.658 23.3698 28.0992C23.2148 28.5404 23.1608 29.0108 23.2118 29.4756C23.2628 29.9404 23.4175 30.3879 23.6644 30.785C23.9113 31.1821 24.2442 31.5188 24.6385 31.7701C27.912 33.8623 31.8261 33.6561 35.0026 31.3436L38.0026 34.1795L34.1776 37.9998ZM44.0214 29.1295L40.5839 22.2701L42.6573 21.2342L46.087 28.0936L44.0214 29.1295ZM28.5886 44.3014C28.527 44.5398 28.4191 44.7638 28.271 44.9605C28.1229 45.1573 27.9375 45.3229 27.7253 45.448C27.5132 45.5731 27.2785 45.6551 27.0347 45.6895C26.7908 45.7238 26.5426 45.7098 26.3042 45.6483L22.1479 44.5748C21.9183 44.5155 21.7019 44.4132 21.5104 44.2733L17.7089 41.4889C17.32 41.1908 17.0633 40.7525 16.9936 40.2676C16.9239 39.7826 17.0467 39.2897 17.3358 38.8942C17.625 38.4987 18.0574 38.2321 18.5406 38.1514C19.0238 38.0707 19.5194 38.1823 19.9214 38.4623L23.4323 41.0279L27.2417 42.0108C27.4808 42.0723 27.7054 42.1804 27.9026 42.3289C28.0998 42.4774 28.2658 42.6635 28.3909 42.8763C28.5161 43.0891 28.598 43.3246 28.6319 43.5691C28.6658 43.8137 28.6511 44.0625 28.5886 44.3014Z" fill="#731013"/>
</svg>
