<svg width="61" height="61" viewBox="0 0 61 61" fill="none" xmlns="http://www.w3.org/2000/svg">
<rect x="0.734375" y="0.0825195" width="60" height="60" rx="30" fill="#F9BABA"/>
<path d="M21.9343 25.2733L16.1624 30.0827L21.9343 34.8921C22.1257 35.0489 22.2842 35.2421 22.4006 35.4606C22.5169 35.679 22.5889 35.9183 22.6124 36.1647C22.6358 36.411 22.6102 36.6596 22.5371 36.8961C22.4641 37.1325 22.3449 37.3521 22.1865 37.5423C22.0281 37.7325 21.8336 37.8894 21.6142 38.004C21.3949 38.1187 21.155 38.1887 20.9085 38.2102C20.6619 38.2317 20.4136 38.2041 20.1777 38.1291C19.9418 38.0542 19.7232 37.9332 19.5343 37.7733L12.0343 31.5233C11.823 31.3473 11.6531 31.1271 11.5365 30.8781C11.4198 30.6292 11.3594 30.3576 11.3594 30.0827C11.3594 29.8078 11.4198 29.5362 11.5365 29.2872C11.6531 29.0383 11.823 28.818 12.0343 28.6421L19.5343 22.3921C19.9169 22.0785 20.4079 21.9288 20.9004 21.9757C21.3928 22.0226 21.8468 22.2621 22.1634 22.6422C22.48 23.0223 22.6336 23.5121 22.5907 24.005C22.5478 24.4978 22.3118 24.9537 21.9343 25.2733ZM49.4343 28.6421L41.9343 22.3921C41.7454 22.2321 41.5267 22.1112 41.2909 22.0362C41.055 21.9612 40.8066 21.9337 40.5601 21.9552C40.3135 21.9766 40.0737 22.0467 39.8543 22.1613C39.635 22.276 39.4405 22.4329 39.2821 22.623C39.1237 22.8132 39.0045 23.0328 38.9314 23.2693C38.8583 23.5057 38.8328 23.7543 38.8562 24.0007C38.8796 24.2471 38.9516 24.4864 39.068 24.7048C39.1844 24.9232 39.3429 25.1164 39.5343 25.2733L45.3062 30.0827L39.5343 34.8921C39.3429 35.0489 39.1844 35.2421 39.068 35.4606C38.9516 35.679 38.8796 35.9183 38.8562 36.1647C38.8328 36.411 38.8583 36.6596 38.9314 36.8961C39.0045 37.1325 39.1237 37.3521 39.2821 37.5423C39.4405 37.7325 39.635 37.8894 39.8543 38.004C40.0737 38.1187 40.3135 38.1887 40.5601 38.2102C40.8066 38.2317 41.055 38.2041 41.2909 38.1291C41.5267 38.0542 41.7454 37.9332 41.9343 37.7733L49.4343 31.5233C49.6455 31.3473 49.8155 31.1271 49.9321 30.8781C50.0487 30.6292 50.1092 30.3576 50.1092 30.0827C50.1092 29.8078 50.0487 29.5362 49.9321 29.2872C49.8155 29.0383 49.6455 28.818 49.4343 28.6421ZM36.3749 14.5702C36.1435 14.486 35.8977 14.4483 35.6516 14.4591C35.4056 14.4699 35.1641 14.5291 34.9409 14.6333C34.7178 14.7375 34.5173 14.8846 34.351 15.0663C34.1847 15.2479 34.0559 15.4606 33.9718 15.6921L23.9718 43.1921C23.8023 43.6593 23.8252 44.1747 24.0356 44.6251C24.246 45.0754 24.6265 45.4238 25.0937 45.5936C25.2987 45.6693 25.5157 45.708 25.7343 45.7077C26.1192 45.7077 26.4949 45.5893 26.8102 45.3685C27.1255 45.1476 27.3653 44.8351 27.4968 44.4733L37.4968 16.9733C37.581 16.7419 37.6187 16.4961 37.6079 16.25C37.597 16.004 37.5378 15.7625 37.4337 15.5393C37.3295 15.3162 37.1824 15.1157 37.0007 14.9494C36.819 14.7831 36.6064 14.6543 36.3749 14.5702Z" fill="#731013"/>
</svg>
