<svg width="61" height="61" viewBox="0 0 61 61" fill="none" xmlns="http://www.w3.org/2000/svg">
<rect x="0.400391" y="0.0825195" width="60" height="60" rx="30" fill="#F9BABA"/>
<path d="M30.4004 13.2075C27.0628 13.2075 23.8002 14.1972 21.0252 16.0515C18.2501 17.9057 16.0872 20.5412 14.8099 23.6247C13.5327 26.7082 13.1985 30.1012 13.8496 33.3747C14.5008 36.6481 16.108 39.6549 18.468 42.0149C20.828 44.375 23.8348 45.9821 27.1082 46.6333C30.3817 47.2844 33.7747 46.9502 36.8582 45.673C39.9417 44.3958 42.5772 42.2328 44.4314 39.4578C46.2857 36.6827 47.2754 33.4201 47.2754 30.0825C47.2704 25.6085 45.4909 21.3192 42.3273 18.1556C39.1637 14.992 34.8744 13.2125 30.4004 13.2075ZM30.4004 16.9575C32.8288 16.9556 35.2096 17.6309 37.2754 18.9075V21.4075L34.1176 25.0825L29.6691 25.6841L26.7473 23.77C26.4065 23.5322 26.0217 23.3647 25.6154 23.2774C25.2091 23.19 24.7895 23.1846 24.381 23.2614C23.9726 23.3383 23.5836 23.4958 23.2368 23.7248C22.89 23.9538 22.5924 24.2496 22.3613 24.595L19.0895 29.4856C18.7479 29.994 18.5642 30.592 18.5613 31.2044L18.5363 35.6872C17.5918 33.6871 17.168 31.4807 17.3045 29.2729C17.4409 27.0652 18.1331 24.9278 19.3168 23.0591C20.5004 21.1905 22.1371 19.6514 24.0748 18.5846C26.0126 17.5179 28.1885 16.9582 30.4004 16.9575ZM21.0895 39.3231C21.4573 39.0321 21.7548 38.6621 21.9601 38.2404C22.1654 37.8187 22.2732 37.3562 22.2754 36.8872L22.3066 31.4185L25.1301 27.1997L27.727 28.8997C28.3697 29.35 29.1588 29.5409 29.9363 29.4341L34.8535 28.7685C35.6128 28.6657 36.3079 28.2876 36.8066 27.706L40.2691 23.6763C40.6101 23.2772 40.8459 22.7991 40.9551 22.2856C42.0941 23.8239 42.882 25.5932 43.2632 27.4689C43.6444 29.3446 43.6096 31.2811 43.1613 33.1419L41.3895 31.5216C40.9497 31.1215 40.4053 30.8546 39.8196 30.7519C39.234 30.6493 38.6313 30.7152 38.0816 30.9419L33.3238 32.92C32.8263 33.1284 32.3909 33.4615 32.0595 33.887C31.7281 34.3126 31.5119 34.8163 31.4316 35.3497L31.0582 37.881C30.9461 38.642 31.1186 39.4176 31.5427 40.0593C31.9668 40.701 32.6126 41.1638 33.3566 41.3591L35.8566 42.0122C33.4168 43.1305 30.6922 43.4719 28.0519 42.9901C25.4116 42.5082 22.9832 41.2265 21.0957 39.3185L21.0895 39.3231ZM39.3348 39.6856L39.0801 39.431C38.6878 39.0382 38.1982 38.7567 37.6613 38.6153L34.8488 37.8778L35.0879 36.2513L39.1504 34.5622L41.6504 36.8419C41.014 37.8925 40.2347 38.8496 39.3348 39.6856Z" fill="#731013"/>
</svg>
