<svg width="61" height="61" viewBox="0 0 61 61" fill="none" xmlns="http://www.w3.org/2000/svg">
<rect x="0.734375" y="0.0825195" width="60" height="60" rx="30" fill="#F9BABA"/>
<path d="M33.9379 34.5403C35.7769 33.0945 37.1194 31.1113 37.7787 28.8668C38.438 26.6224 38.3812 24.2282 37.6162 22.0175C36.8513 19.8068 35.4162 17.8895 33.5107 16.5325C31.6052 15.1755 29.324 14.4463 26.9847 14.4463C24.6454 14.4463 22.3643 15.1755 20.4588 16.5325C18.5533 17.8895 17.1182 19.8068 16.3532 22.0175C15.5883 24.2282 15.5315 26.6224 16.1908 28.8668C16.85 31.1113 18.1926 33.0945 20.0316 34.5403C17.074 35.7467 14.4605 37.6656 12.4238 40.1262C12.1039 40.5071 11.9484 40.9994 11.9914 41.4949C12.0345 41.9904 12.2727 42.4485 12.6535 42.7684C13.0343 43.0883 13.5266 43.2439 14.0221 43.2008C14.5177 43.1577 14.9758 42.9196 15.2957 42.5387C18.3191 38.9403 22.4707 36.9575 26.9847 36.9575C32.766 36.9575 36.5347 39.9919 38.6738 42.5387C38.9937 42.9196 39.4518 43.1577 39.9473 43.2008C40.4428 43.2439 40.9352 43.0883 41.316 42.7684C41.6968 42.4485 41.935 41.9904 41.978 41.4949C42.0211 40.9994 41.8656 40.5071 41.5457 40.1262C39.509 37.6656 36.8955 35.7467 33.9379 34.5403ZM19.4847 25.7075C19.4847 24.2241 19.9246 22.7741 20.7487 21.5407C21.5728 20.3073 22.7442 19.346 24.1146 18.7784C25.4851 18.2107 26.9931 18.0622 28.4479 18.3516C29.9028 18.641 31.2391 19.3553 32.288 20.4042C33.3369 21.4531 34.0512 22.7895 34.3406 24.2443C34.63 25.6992 34.4815 27.2072 33.9138 28.5776C33.3462 29.9481 32.3849 31.1194 31.1515 31.9435C29.9181 32.7676 28.4681 33.2075 26.9847 33.2075C24.9962 33.2054 23.0898 32.4146 21.6837 31.0085C20.2776 29.6024 19.4868 27.696 19.4847 25.7075ZM49.255 31.9575L48.1441 32.3184L48.83 33.2637C48.9797 33.4626 49.0883 33.6892 49.1495 33.9304C49.2106 34.1716 49.2232 34.4226 49.1864 34.6687C49.1496 34.9149 49.0641 35.1512 48.935 35.3639C48.8059 35.5767 48.6358 35.7616 48.4345 35.908C48.2332 36.0543 48.0048 36.1591 47.7626 36.2162C47.5204 36.2734 47.2692 36.2817 47.0238 36.2408C46.7783 36.1999 46.5434 36.1106 46.3328 35.9779C46.1223 35.8453 45.9402 35.6721 45.7972 35.4684L45.1097 34.5216L44.4222 35.4684C44.2793 35.6721 44.0972 35.8453 43.8866 35.9779C43.6761 36.1106 43.4412 36.1999 43.1957 36.2408C42.9502 36.2817 42.6991 36.2734 42.4569 36.2162C42.2147 36.1591 41.9863 36.0543 41.785 35.908C41.5837 35.7616 41.4135 35.5767 41.2844 35.3639C41.1554 35.1512 41.0699 34.9149 41.0331 34.6687C40.9963 34.4226 41.0088 34.1716 41.07 33.9304C41.1312 33.6892 41.2398 33.4626 41.3894 33.2637L42.0754 32.3184L40.9644 31.9575C40.7302 31.8815 40.5132 31.7601 40.3259 31.6002C40.1386 31.4403 39.9847 31.2451 39.8728 31.0257C39.7609 30.8064 39.6934 30.5671 39.674 30.3216C39.6546 30.0761 39.6837 29.8292 39.7597 29.595C39.8358 29.3608 39.9572 29.1438 40.117 28.9565C40.2769 28.7692 40.4721 28.6152 40.6915 28.5034C40.9109 28.3915 41.1501 28.3239 41.3956 28.3045C41.6411 28.2851 41.888 28.3143 42.1222 28.3903L43.2347 28.7512V27.5825C43.2347 27.0852 43.4323 26.6083 43.7839 26.2567C44.1355 25.905 44.6125 25.7075 45.1097 25.7075C45.607 25.7075 46.0839 25.905 46.4356 26.2567C46.7872 26.6083 46.9847 27.0852 46.9847 27.5825V28.7512L48.0972 28.3903C48.3315 28.3143 48.5784 28.2851 48.8239 28.3045C49.0693 28.3239 49.3086 28.3915 49.528 28.5034C49.7474 28.6152 49.9426 28.7692 50.1024 28.9565C50.2623 29.1438 50.3837 29.3608 50.4597 29.595C50.5358 29.8292 50.5649 30.0761 50.5455 30.3216C50.5261 30.5671 50.4585 30.8064 50.3467 31.0257C50.2348 31.2451 50.0808 31.4403 49.8935 31.6002C49.7062 31.7601 49.4893 31.8815 49.255 31.9575Z" fill="#731013"/>
</svg>
