<svg width="150" height="50" viewBox="0 0 150 50" fill="none" xmlns="http://www.w3.org/2000/svg">
<path d="M25.5429 0C24.3084 0 21.552 0.314466 18.7238 8.84227C10.2645 4.8287 8.4086 6.4093 7.48276 7.32373C6.61612 8.17196 4.89127 10.307 9.03427 18.268C0.24097 21.1975 0 24.1559 0 25C0 25.7862 0.32552 28.8315 9.00891 31.6576C4.90396 39.8254 6.86977 42.0846 7.47431 42.6845C8.0408 43.239 10.4759 45.1672 18.6477 41.1577C21.6028 49.7642 24.3549 50 25.5386 50C26.7731 50 29.5252 49.6855 32.345 41.195C40.6479 45.2375 42.7659 43.4997 43.5987 42.6845C44.4654 41.8322 46.1902 39.7013 42.0472 31.732C50.8405 28.8026 51.0815 25.8441 51.0815 25C51.0815 24.2138 50.756 21.1685 42.0726 18.3424C46.1775 10.1788 44.2117 7.91543 43.5987 7.32373C43.028 6.76928 40.5887 4.83698 32.3915 8.8671C29.3138 0.16137 26.8576 0 25.5429 0ZM9.74027 9.53327C10.0151 9.26432 10.9409 8.10162 18.0939 10.8946C18.0601 11.0146 18.022 11.1304 17.9924 11.2587C16.9652 14.8916 14.7246 16.617 11.5666 17.4983C11.4059 17.5439 11.2537 17.5852 11.1015 17.6308C8.07885 10.8242 9.39361 9.8767 9.74027 9.53327ZM31.0091 11.7883C31.0852 11.7511 31.157 11.718 31.2331 11.689C31.2796 11.7966 31.3177 11.9 31.36 12.0076C32.8227 15.6447 35.1648 18.0818 38.9526 19.4389C39.0372 19.472 39.1133 19.4969 39.1894 19.5258C39.1387 19.6334 39.0922 19.7327 39.0414 19.8444C37.38 23.4028 37.2743 26.8082 39.0414 30.3583C39.0795 30.4328 39.1133 30.5073 39.1513 30.5818C39.0414 30.6273 38.9273 30.6645 38.8174 30.7059C35.0802 32.0631 32.5394 34.3926 31.2247 38.1248C31.1993 38.2076 31.1655 38.282 31.1401 38.3606C31.0302 38.311 30.9245 38.2655 30.8062 38.2158C27.1578 36.6145 23.725 36.5525 20.0639 38.2158C19.9879 38.2531 19.9118 38.2862 19.8399 38.3151C19.7934 38.2075 19.7553 38.1041 19.7131 37.9883C18.2884 34.3388 15.9083 31.9141 12.1204 30.5569C12.0358 30.5238 11.9597 30.499 11.8836 30.47C11.9301 30.3625 11.9809 30.2632 12.0316 30.1556C13.693 26.5972 13.7691 23.2125 12.0316 19.6417C11.9936 19.5672 11.9597 19.4927 11.9217 19.4182C12.0316 19.3727 12.1457 19.3355 12.2557 19.2941C15.997 17.9328 18.4998 15.5867 19.8568 11.8669C19.8822 11.7925 19.916 11.718 19.9413 11.6435C20.0513 11.689 20.157 11.7387 20.2753 11.78C23.9279 13.3524 27.3522 13.4517 31.0091 11.7883ZM3.1918 25C3.1918 24.5614 2.96351 23.0139 10.0616 20.1506C10.1334 20.2706 10.2011 20.3947 10.2729 20.5147C12.1711 23.7918 11.8245 26.5641 10.2349 29.3694C10.1588 29.5018 10.0869 29.6301 10.0108 29.7625C3.03538 26.9944 3.1918 25.4014 3.1918 25ZM9.74027 40.4709C9.41898 40.1564 8.14226 39.2213 11.0931 32.2824C11.2284 32.3196 11.3594 32.3568 11.5032 32.3941C15.2149 33.3995 16.9694 35.5925 17.8783 38.6834C17.9248 38.8323 17.9671 38.9772 18.0051 39.122C11.0677 41.9935 10.0277 40.7564 9.74027 40.4709ZM25.5429 46.876C25.1666 46.876 23.6405 47.2526 20.6008 40.144C20.715 40.0819 20.8376 40.0116 20.9602 39.9495C24.3084 38.0917 27.1409 38.431 30.0071 39.9868C30.1551 40.0695 30.2988 40.1481 30.4468 40.2226C27.7285 47.0705 25.9064 46.876 25.5429 46.876ZM41.3497 40.4709C41.0833 40.7315 40.2716 42.0515 32.9918 39.1344C33.0298 39.0103 33.0679 38.8779 33.1017 38.7454C34.129 35.1125 36.3696 33.3871 39.5276 32.5058C39.6925 32.4603 39.8531 32.4106 40.0138 32.3693C43.028 39.1013 41.6118 40.2185 41.3497 40.4709ZM47.8939 25C47.8939 25.4386 48.1222 26.9861 41.0241 29.8494C40.9523 29.7294 40.8889 29.6135 40.8212 29.4853C38.923 26.2082 39.2697 23.4359 40.8593 20.6306C40.9354 20.494 41.0115 20.3616 41.0833 20.2292C48.0546 23.0056 47.8939 24.6028 47.8939 25ZM41.3497 9.53327C41.671 9.84773 42.9477 10.7829 39.9968 17.7218C39.8616 17.6845 39.7305 17.6473 39.5868 17.6101C35.875 16.6046 34.1713 14.3909 33.2116 11.3208C33.1651 11.1759 33.1228 11.0353 33.0763 10.8904C40.0222 8.01473 41.0622 9.2519 41.3497 9.53327ZM30.4679 9.86842C30.358 9.93049 30.2439 9.98841 30.1297 10.0546C26.7815 11.9124 23.9744 11.5276 21.0828 10.0174C20.9348 9.9429 20.7953 9.86842 20.6474 9.79394C23.4375 2.88812 25.0525 3.12397 25.5471 3.12397C25.9276 3.12397 27.4199 2.93777 30.4679 9.86842Z" fill="url(#paint0_linear)"/>
<path fill-rule="evenodd" clip-rule="evenodd" d="M68.0465 32.5885C68.0465 33.023 68.3932 33.3788 68.8201 33.3788H81.7649C81.8241 33.3788 81.8706 33.3291 81.8706 33.2712V32.1416C81.8706 32.0837 81.8241 32.034 81.7649 32.034H69.8474C69.7079 32.034 69.5938 31.9182 69.5938 31.7734V25.4261C69.5938 25.2813 69.7079 25.1696 69.8474 25.1696H80.9743C81.0335 25.1696 81.08 25.1199 81.08 25.062V23.9655C81.08 23.9076 81.0335 23.8579 80.9743 23.8579H69.8474C69.7079 23.8579 69.5938 23.7421 69.5938 23.6014V18.2307C69.5938 18.0858 69.7079 17.9741 69.8474 17.9741H81.5873C81.6465 17.9741 81.693 17.9245 81.693 17.8665V16.7328C81.693 16.6749 81.6465 16.6252 81.5873 16.6252H68.8201C68.3932 16.6252 68.0465 16.9811 68.0465 17.4155V32.5885Z" fill="#042132"/>
<path fill-rule="evenodd" clip-rule="evenodd" d="M89.5774 33.3747H102.497C102.556 33.3747 102.607 33.325 102.607 33.2671V32.1375C102.607 32.0754 102.556 32.0299 102.497 32.0299H90.4948C90.3511 32.0299 90.2327 31.914 90.2327 31.7692V16.7328C90.2327 16.6749 90.182 16.6252 90.1228 16.6252H88.8884C88.8292 16.6252 88.7784 16.6749 88.7784 16.7328V32.5885C88.7827 33.023 89.1378 33.3747 89.5774 33.3747Z" fill="#042132"/>
<path fill-rule="evenodd" clip-rule="evenodd" d="M135.628 27.2178L140.232 18.3672C140.283 18.2762 140.384 18.2431 140.46 18.2431C140.541 18.2431 140.642 18.2762 140.689 18.3672L145.284 27.2178C145.326 27.2964 145.322 27.3957 145.275 27.4702C145.229 27.5488 145.144 27.5984 145.051 27.5984H135.852C135.763 27.5984 135.679 27.5529 135.632 27.4743C135.586 27.3957 135.586 27.3005 135.628 27.2178ZM134.884 28.9142H146.028C146.125 28.9142 146.21 28.968 146.256 29.0508L148.463 33.3167C148.48 33.354 148.518 33.3747 148.56 33.3747H149.892C149.93 33.3747 149.964 33.354 149.985 33.3209C150.002 33.2878 150.006 33.2464 149.989 33.2133L141.775 17.4362C141.733 17.3535 141.327 16.6211 140.452 16.6211C139.56 16.6211 139.15 17.399 139.133 17.4321L130.923 33.2174C130.906 33.2505 130.906 33.2919 130.927 33.325C130.948 33.3581 130.982 33.3788 131.02 33.3788H132.352C132.394 33.3788 132.428 33.3581 132.449 33.3209L134.656 29.059C134.702 28.968 134.787 28.9142 134.884 28.9142Z" fill="#042132"/>
<path fill-rule="evenodd" clip-rule="evenodd" d="M123.63 27.495C123.385 27.0688 123.051 26.684 122.637 26.353C122.223 26.0261 121.732 25.7323 121.174 25.4841C120.62 25.2358 120.024 25.0124 119.403 24.8096C118.781 24.611 118.135 24.4207 117.475 24.251C116.816 24.0772 116.173 23.9076 115.552 23.7379C114.947 23.5766 114.355 23.3945 113.784 23.1959C113.235 23.0056 112.744 22.7904 112.334 22.5546C111.924 22.3228 111.599 22.0498 111.358 21.7477C111.117 21.4457 110.999 21.1022 110.999 20.6967C110.999 20.2126 111.121 19.8071 111.379 19.4596C111.633 19.112 112.005 18.8182 112.487 18.5906C112.956 18.3672 113.539 18.2472 114.271 18.1314C114.943 18.0279 115.716 17.97 116.57 17.97H122.607C122.633 17.97 122.658 17.9576 122.679 17.9369C122.696 17.9162 122.709 17.8914 122.709 17.8624V16.7287C122.709 16.6707 122.662 16.6211 122.612 16.6211H122.514H116.579C115.987 16.6211 114.258 16.6625 113.281 16.9107C112.766 17.0307 112.271 17.2004 111.819 17.4073C111.362 17.6141 110.96 17.879 110.622 18.1851C110.284 18.4913 110.009 18.8596 109.815 19.2858C109.62 19.7078 109.519 20.2002 109.519 20.7464C109.519 21.3008 109.641 21.7932 109.887 22.2153C110.132 22.6332 110.466 23.0056 110.88 23.3242C111.29 23.6386 111.781 23.92 112.339 24.16C112.892 24.3958 113.489 24.611 114.102 24.7972C114.715 24.9834 115.361 25.1613 116.021 25.3227C116.68 25.4841 117.323 25.6496 117.936 25.8151C118.557 25.9847 119.149 26.1709 119.695 26.3654C120.248 26.5599 120.735 26.7874 121.145 27.0398C121.555 27.2922 121.88 27.5901 122.121 27.9212C122.362 28.2563 122.476 28.6328 122.476 29.0756C122.476 29.63 122.328 30.0852 122.028 30.4658C121.732 30.8465 121.309 31.1568 120.773 31.3927C120.219 31.6368 119.542 31.7485 118.845 31.852C118.164 31.9554 117.369 32.0092 116.414 32.0175H109.705C109.65 32.0175 109.608 32.0671 109.608 32.1251V33.2588C109.608 33.3209 109.65 33.3664 109.705 33.3664L116.367 33.3705C116.947 33.3705 117.547 33.3457 118.143 33.2919C118.743 33.2423 119.331 33.1512 119.893 33.0271L120.02 32.9981C120.532 32.8864 121.018 32.7747 121.483 32.5761C121.982 32.3609 122.417 32.0837 122.789 31.7568C123.161 31.4299 123.457 31.0327 123.677 30.5817C123.897 30.1266 124.007 29.5887 124.007 28.9804C123.998 28.4218 123.876 27.9212 123.63 27.495Z" fill="#042132"/>
<defs>
<linearGradient id="paint0_linear" x1="25.5407" y1="50" x2="25.5407" y2="0" gradientUnits="userSpaceOnUse">
<stop stop-color="#007DF7"/>
<stop offset="0.5028" stop-color="#46DF83"/>
<stop offset="1" stop-color="#F8DA49"/>
</linearGradient>
</defs>
</svg>
