<svg width="443" height="72" viewBox="0 0 443 72" fill="none" xmlns="http://www.w3.org/2000/svg">
<path fill-rule="evenodd" clip-rule="evenodd" d="M17.6451 26.3044C16.8031 15.663 24.6743 4.75928 37.8418 4.75928C42.2045 4.75928 46.799 5.86978 50.6553 7.70029C61.1258 12.6427 68.3685 23.2962 68.3685 35.6338C68.3685 47.0379 62.1814 57.002 52.9618 62.3471C57.4099 57.9844 60.0458 51.724 59.4906 44.7864C58.5936 33.4433 47.8974 24.2115 38.1957 24.2115C29.1713 24.2115 25.6384 32.0888 26.5109 37.4399C26.8404 39.4474 27.7068 41.2779 28.9638 42.7728C27.3346 41.9003 25.7604 40.7776 24.3082 39.4291C20.397 35.7864 18.0296 31.1247 17.6451 26.3044ZM57.3367 44.9755C58.1787 55.6169 50.3075 66.5206 37.1401 66.5206C32.7773 66.5206 28.1828 65.4101 24.3265 63.5796C13.856 58.6373 6.61328 47.9837 6.61328 35.6461C6.61328 24.242 12.8004 14.2779 22.0201 8.93283C17.5719 13.2955 14.936 19.5559 15.4912 26.4935C16.3882 37.8366 27.0845 47.0684 36.7862 47.0684C45.8106 47.0684 49.3435 39.1911 48.4709 33.84C48.1414 31.8325 47.275 30.002 46.0241 28.5071C47.6533 29.3796 49.2275 30.5023 50.6797 31.8508C54.5909 35.4935 56.9584 40.1613 57.3367 44.9755ZM102.117 38.9837V34.0657H118.585C118.756 34.9322 118.854 35.9633 118.854 37.0799C118.854 40.7715 117.841 45.3356 114.595 48.5878C111.434 51.8827 107.395 53.64 102.032 53.64C92.1041 53.64 83.7631 45.5552 83.7631 35.6278C83.7631 25.7003 92.1102 17.6155 102.032 17.6155C107.523 17.6155 111.428 19.7695 114.375 22.5823L110.903 26.0542C108.792 24.0773 105.943 22.5396 102.032 22.5396C94.7828 22.5396 89.1204 28.3789 89.1204 35.6338C89.1204 42.8827 94.7889 48.7281 102.032 48.7281C106.73 48.7281 109.409 46.8366 111.123 45.1281C112.52 43.7308 113.436 41.7294 113.796 38.9959L102.117 38.9837ZM132.308 53.64C138.721 53.64 143.944 48.722 143.944 42.0406C143.944 35.3166 138.715 30.4413 132.308 30.4413C125.895 30.4413 120.672 35.3593 120.672 42.0406C120.672 48.722 125.895 53.64 132.308 53.64ZM132.308 35.0176C135.823 35.0176 138.849 37.8732 138.849 42.0467C138.849 46.1776 135.823 49.0759 132.308 49.0759C128.794 49.0759 125.761 46.2203 125.761 42.0467C125.767 37.8732 128.794 35.0176 132.308 35.0176ZM169.339 42.0467C169.339 48.722 164.11 53.6461 157.697 53.6461C151.284 53.6461 146.061 48.7281 146.061 42.0467C146.061 35.3654 151.291 30.4474 157.697 30.4474C164.11 30.4474 169.339 35.3227 169.339 42.0467ZM164.244 42.0467C164.244 37.8732 161.218 35.0176 157.703 35.0176C154.189 35.0176 151.156 37.8732 151.156 42.0467C151.156 46.2203 154.189 49.0759 157.703 49.0759C161.212 49.0759 164.244 46.1715 164.244 42.0467ZM193.673 51.9742V31.1491H188.84V33.0406H188.663C187.522 31.68 185.326 30.4474 182.556 30.4474C176.759 30.4474 171.444 35.585 171.444 42.0895C171.444 48.5939 176.759 53.64 182.556 53.64C185.326 53.64 187.522 52.4074 188.663 51.004H188.84V52.6759C188.84 57.1118 186.467 59.4854 182.647 59.4854C179.529 59.4854 177.595 57.2461 176.808 55.3545L172.372 57.1972C173.647 60.2725 177.028 64.0494 182.647 64.0494C188.621 64.0556 193.673 60.541 193.673 51.9742ZM183.001 35.0176C186.473 35.0176 189.194 38.0074 189.194 42.0895C189.194 46.1288 186.516 49.0759 183.001 49.0759C179.487 49.0759 176.545 46.1776 176.545 42.0895C176.545 38.0013 179.529 35.0176 183.001 35.0176ZM202.301 18.964V52.9383H197.206V18.964H202.301ZM225.927 48.5023L221.973 45.8664C220.655 47.8006 218.855 49.0759 216.261 49.0759C213.668 49.0759 211.826 47.8922 210.642 45.5613L226.146 39.1484L225.621 37.8305C224.657 35.2372 221.668 30.4474 215.694 30.4474C209.72 30.4474 204.76 35.1457 204.76 42.0467C204.76 48.5511 209.678 53.6461 216.268 53.6461C221.576 53.64 224.651 50.3877 225.927 48.5023ZM220.173 37.385L209.806 41.6928C209.672 37.2142 213.278 34.9261 215.865 34.9261C217.891 34.9261 219.605 35.9389 220.173 37.385ZM241.303 21.0081H251.48C262.701 21.0081 267.857 27.1769 267.857 37.0311C267.857 46.8427 262.701 52.9688 251.48 52.9688H241.303V21.0081ZM251.346 49.1369C260.194 49.1369 263.263 44.5667 263.263 37.0311C263.263 29.4528 260.206 24.785 251.346 24.785H245.818V49.1308H251.346V49.1369ZM274.404 42.6996H292.154C292.197 41.8698 292.197 41.1864 292.197 40.5457C292.197 34.7064 287.999 29.7701 281.336 29.7701C274.588 29.7701 269.975 34.5661 269.975 41.7355C269.975 48.8196 274.624 53.5179 281.293 53.5179C286.626 53.5179 290.324 50.3206 291.556 46.0678H287.041C286.126 48.3071 284.124 49.7654 281.293 49.7654C277.779 49.7776 274.679 47.3125 274.404 42.6996ZM281.293 33.5288C284.851 33.5288 287.541 35.8108 287.724 39.5084H274.49C275.002 35.585 277.919 33.5288 281.293 33.5288ZM316.75 42.6996H299C299.281 47.3125 302.375 49.7776 305.889 49.7776C308.72 49.7776 310.722 48.3193 311.637 46.0799H316.152C314.92 50.3328 311.222 53.5301 305.889 53.5301C299.226 53.5301 294.571 48.8318 294.571 41.7478C294.571 34.5783 299.183 29.7823 305.932 29.7823C312.595 29.7823 316.793 34.7186 316.793 40.5579C316.793 41.1864 316.793 41.8698 316.75 42.6996ZM312.32 39.5023C312.137 35.8047 309.447 33.5227 305.889 33.5227C302.515 33.5227 299.598 35.5789 299.086 39.5023H312.32ZM323.541 30.3193H319.484V63.0183H323.999V49.4115C325.555 52.023 328.374 53.524 331.986 53.524C338.643 53.524 343.207 48.545 343.207 41.6989C343.207 34.8528 338.637 29.7762 332.029 29.7762C327.971 29.7762 325.415 31.7349 323.999 33.9315L323.541 30.3193ZM331.303 33.6996C335.592 33.6996 338.607 36.9518 338.607 41.6501C338.607 46.4034 335.592 49.6006 331.303 49.6006C327.056 49.6006 323.999 46.4034 323.999 41.6501C323.999 36.9396 327.056 33.6996 331.303 33.6996ZM378.426 21.0081V52.9749H373.911V28.9037L363.874 48.4047H360.402L350.316 28.9037V52.9749H345.8V21.0081H351.091L362.135 42.6081L373.13 21.0081H378.426ZM384.18 20.0928C382.484 20.0928 381.209 21.2888 381.209 22.9301C381.209 24.5715 382.484 25.8101 384.18 25.8101C385.913 25.8101 387.194 24.5715 387.194 22.9301C387.188 21.2705 385.913 20.0928 384.18 20.0928ZM386.456 30.3193H381.941V52.9749H386.456V30.3193ZM410.869 39.9111V52.9749H406.396V40.3688C406.396 35.8962 404.523 33.6569 400.868 33.6569C397.171 33.6569 394.48 36.3539 394.48 41.284V52.9749H389.965V30.3193H393.979L394.297 34.2915C395.755 31.5091 398.586 29.7762 402.101 29.7762C407.537 29.7762 410.869 33.1139 410.869 39.9111ZM424.531 29.6664C417.868 29.6664 413.352 34.6454 413.352 41.4915C413.352 48.3376 417.88 53.4142 424.476 53.4142C428.546 53.4142 431.096 51.4556 432.554 49.2589L433.012 52.8711H437.07V19.9891H432.554V33.7789C431.017 31.1735 428.186 29.6664 424.531 29.6664ZM425.214 33.602C429.504 33.602 432.518 36.7993 432.518 41.5525C432.518 46.2508 429.504 49.4908 425.214 49.503C420.967 49.503 417.91 46.2508 417.91 41.5525C417.91 36.7993 420.967 33.602 425.214 33.602Z" fill="#0053D6"/>
</svg>
