<svg width="180" height="60" viewBox="0 0 180 60" fill="none" xmlns="http://www.w3.org/2000/svg">
<mask id="mask0_4028_492" style="mask-type:luminance" maskUnits="userSpaceOnUse" x="0" y="0" width="179" height="60">
<path d="M178.309 0.882324H0.882324V59.1176H178.309V0.882324Z" fill="white"/>
</mask>
<g mask="url(#mask0_4028_492)">
<path d="M23.8952 46.255C11.3937 46.255 0.882324 36.074 0.882324 23.5648C0.882324 11.0556 11.3937 0.882324 23.8952 0.882324C30.8106 0.882324 35.7359 3.59468 39.4395 7.13688L35.0674 11.509C32.4088 9.01946 28.8129 7.08313 23.8876 7.08313C14.7592 7.08313 7.62098 14.4442 7.62098 23.5725C7.62098 32.7008 14.7592 40.0619 23.8876 40.0619C29.8118 40.0619 33.1849 37.6799 35.3441 35.5284C37.1113 33.7611 38.2793 31.1871 38.7172 27.7063H23.8876V21.5593H44.7567C44.9795 22.6658 45.0871 23.9644 45.0871 25.4089C45.0871 30.0576 43.8116 35.8128 39.7161 39.9082C35.7359 44.0421 30.6493 46.255 23.8952 46.255Z" fill="#4285F4"/>
<path d="M76.5599 31.6482C76.5599 40.0542 70.021 46.255 61.9992 46.255C53.9774 46.255 47.4385 40.0542 47.4385 31.6482C47.4385 23.1807 53.9774 17.0414 61.9992 17.0414C70.021 17.0414 76.5599 23.1807 76.5599 31.6482ZM70.1824 31.6482C70.1824 26.3925 66.3943 22.7965 61.9915 22.7965C57.5964 22.7965 53.8083 26.3925 53.8083 31.6482C53.8083 36.8501 57.5964 40.4999 61.9915 40.4999C66.3943 40.4999 70.1824 36.8425 70.1824 31.6482Z" fill="#E94235"/>
<path d="M108.063 31.6482C108.063 40.0542 101.524 46.255 93.5027 46.255C85.4804 46.255 78.9414 40.0542 78.9414 31.6482C78.9414 23.1807 85.4804 17.0414 93.5027 17.0414C101.524 17.0414 108.063 23.1807 108.063 31.6482ZM101.686 31.6482C101.686 26.3925 97.8978 22.7965 93.4944 22.7965C89.0993 22.7965 85.3115 26.3925 85.3115 31.6482C85.3115 36.8501 89.0993 40.4999 93.4944 40.4999C97.8978 40.4999 101.686 36.8425 101.686 31.6482Z" fill="#FABB05"/>
<path d="M138.069 17.925V43.9038C138.069 54.6918 131.706 59.1177 124.184 59.1177C117.099 59.1177 112.843 54.3614 111.237 50.4888L116.823 48.1683C117.822 50.5503 120.25 53.3702 124.184 53.3702C128.994 53.3702 131.983 50.3813 131.983 44.7952V42.9356H131.76C130.324 44.7029 127.558 46.255 124.068 46.255C116.769 46.255 110.407 39.8929 110.407 31.702C110.407 23.4573 116.769 17.0414 124.068 17.0414C127.558 17.0414 130.324 18.5934 131.76 20.307H131.983V17.925H138.069ZM132.421 31.702C132.421 26.5539 129.025 22.7965 124.692 22.7965C120.304 22.7965 116.816 26.5615 116.816 31.702C116.816 36.7886 120.304 40.4999 124.692 40.4999C129.025 40.4999 132.421 36.7886 132.421 31.702Z" fill="#4285F4"/>
<path d="M148.649 2.43445V45.3713H142.233V2.43445H148.649Z" fill="#34A853"/>
<path d="M173.052 36.4582L178.031 39.7777C176.426 42.1596 172.553 46.2473 165.86 46.2473C157.563 46.2473 151.361 39.8314 151.361 31.6405C151.361 22.9501 157.616 17.0337 165.138 17.0337C172.715 17.0337 176.426 23.0655 177.64 26.331L178.301 27.9907L158.776 36.0741C160.267 39.0093 162.595 40.4999 165.86 40.4999C169.126 40.4999 171.393 38.894 173.052 36.4582ZM157.723 31.2026L170.779 25.7778C170.056 23.9491 167.897 22.6813 165.354 22.6813C162.096 22.6813 157.554 25.5627 157.723 31.2026Z" fill="#E94235"/>
</g>
</svg>
