<svg width="934" height="291" viewBox="0 0 934 291" fill="none" xmlns="http://www.w3.org/2000/svg">
<path d="M931.522 62.7803H913.342V210.2H931.522V62.7803Z" fill="#55576F"/>
<path d="M585.739 107.78H568.279V210.02H585.739V107.78Z" fill="#55576F"/>
<path d="M688.699 138.92C688.699 117.14 675.919 105.98 645.319 105.98C612.739 105.98 598.879 119.12 598.879 158.72C598.879 197.42 612.379 212 647.119 212C658.639 212 676.819 210.38 686.359 206.42L684.559 194.54C674.119 195.98 660.259 197.06 649.459 197.06C628.759 197.06 619.399 191.66 617.599 167.54H664.579C681.319 167.54 688.879 156.92 688.699 138.92ZM617.239 153.86C617.779 128.3 624.979 120.92 646.039 120.92C664.039 120.92 670.699 126.14 670.879 138.92C670.879 146.3 669.079 153.86 659.899 153.86H617.239Z" fill="#55576F"/>
<path d="M732.441 76.8198H714.801V107.78L696.621 109.4V121.64H714.801V184.46C714.801 202.1 723.801 211.82 740.721 211.82C745.761 211.82 756.921 210.92 763.581 209.12L761.421 195.62H746.121C736.221 195.62 732.441 191.84 732.441 182.12V121.64H764.661V107.78H732.441V76.8198Z" fill="#55576F"/>
<path d="M501.68 195.98H495.92L453.8 62.7803H434.9L482.42 205.16C483.32 208.22 486.02 210.2 489.26 210.2H508.34C511.58 210.2 514.28 208.4 515.18 205.16L562.7 62.7803H543.8L501.68 195.98Z" fill="#55576F"/>
<path d="M884.72 210.02H903.62L856.1 67.6401C855.2 64.5801 852.5 62.6001 849.26 62.6001H830.18C826.94 62.6001 824.24 64.4001 823.34 67.6401L775.82 210.02H794.72L836.84 76.8201H842.6L884.72 210.02Z" fill="#55576F"/>
<path d="M839.719 184.46C848.367 184.46 855.379 177.448 855.379 168.8C855.379 160.151 848.367 153.14 839.719 153.14C831.07 153.14 824.059 160.151 824.059 168.8C824.059 177.448 831.07 184.46 839.719 184.46Z" fill="#00A99A"/>
<path d="M381.11 157.606C362.778 65.5017 277.179 1.63498 187.145 0.600098C110.711 1.3393 35.3132 39.6298 7.9629 114.437C-5.047 149.918 -3.12508 188.652 21.2685 218.811C41.8182 244.24 73.8994 260.354 106.868 257.841C124.756 256.511 141.166 249.858 158.316 245.423C181.231 239.509 205.329 240.248 227.653 248.823C241.254 253.997 249.533 262.868 259.882 272.329C270.23 281.791 283.684 287.853 297.581 289.922C323.601 293.766 348.586 280.904 363.813 260.354C385.25 231.526 387.911 191.757 381.11 157.606ZM61.9244 53.9702C95.1883 27.3591 139.245 16.7146 181.231 16.4189C248.055 17.1581 310.886 53.5267 346.516 109.854C362.039 134.395 357.16 163.519 337.35 186.582C345.333 170.616 348.438 149.77 331.88 131.438C315.617 113.254 288.267 116.802 277.475 120.055C275.701 118.133 273.187 116.802 270.378 116.654C264.613 116.359 259.734 120.794 259.438 126.412C259.438 126.707 259.438 127.003 259.438 127.299C249.829 132.03 240.81 137.795 232.827 143.265C232.236 141.935 231.644 140.604 231.053 139.274C222.035 119.315 212.721 98.6178 199.415 85.9036C167.925 55.4486 130.522 59.1446 105.685 75.407C89.5704 85.9036 71.3861 107.34 74.4908 137.352C77.5954 167.363 106.276 195.453 136.436 193.383C126.974 196.636 117.512 199.001 108.494 200.332C96.0753 202.106 83.9525 201.958 72.5688 199.74C72.421 192.792 66.9509 187.174 60.0025 186.73C55.5673 186.435 51.5756 188.357 48.9145 191.609C24.3731 180.669 14.1722 170.172 12.5459 145.039C10.9197 119.907 35.0176 75.5548 61.9244 53.9702ZM280.136 125.968C287.823 124.194 295.511 123.898 302.903 126.116C315.469 129.812 324.931 137.352 330.401 147.848C335.576 157.754 336.61 169.877 333.358 179.634C330.106 188.948 323.748 196.34 315.026 200.479C304.234 205.654 290.337 205.358 274.961 199.592C257.368 193.087 245.985 171.798 235.488 149.179C243.619 143.561 252.342 137.647 261.508 133.064C263.282 135.43 266.091 137.056 269.196 137.204C274.961 137.5 279.84 133.064 280.136 127.447C280.136 126.855 280.136 126.412 280.136 125.968ZM227.505 146.814C227.357 146.961 227.209 146.961 227.061 147.109C221.739 150.805 216.713 154.353 212.129 157.162C210.799 158.049 209.321 158.936 207.694 159.971C182.118 176.234 131.113 208.611 99.18 161.006C76.5605 127.299 93.4142 95.661 111.894 81.6162C121.947 74.0764 135.844 68.6063 151.22 69.4934C165.264 70.2326 180.492 76.1462 195.128 90.3388C207.546 102.314 216.565 122.42 225.287 141.787C226.026 143.561 226.766 145.187 227.505 146.814ZM310.739 274.991C297.729 274.695 284.423 269.964 274.074 262.128C265.943 256.067 259.882 247.64 251.603 241.727C224.548 222.803 181.675 228.273 151.22 236.848C120.025 245.718 96.2232 248.379 65.6204 232.708C44.3315 221.916 26.7385 203.732 18.016 181.704C20.825 184.808 28.3648 192.2 46.2534 200.627C46.6969 207.28 52.0191 212.75 58.8198 213.046C62.8114 213.194 66.5074 211.715 69.0207 209.054C69.1685 209.054 69.4642 209.202 69.612 209.202C76.5605 210.828 102.432 215.559 128.304 206.541C168.665 192.348 214.347 163.372 215.825 162.485C220.409 159.676 225.287 156.275 230.462 152.579C238.001 168.842 246.724 183.921 257.073 194.861C277.918 216.742 303.642 215.707 321.974 209.941C343.263 203.436 362.778 176.529 368.396 154.797C381.702 207.576 372.092 276.173 310.739 274.991Z" fill="url(#paint0_linear_3339_17824)"/>
<defs>
<linearGradient id="paint0_linear_3339_17824" x1="334.177" y1="247.517" x2="99.0738" y2="89.3162" gradientUnits="userSpaceOnUse">
<stop stop-color="#C7D92D"/>
<stop offset="1" stop-color="#00AA9B"/>
</linearGradient>
</defs>
</svg>
