<svg width="61" height="61" viewBox="0 0 61 61" fill="none" xmlns="http://www.w3.org/2000/svg">
<rect x="0.400391" y="0.0825195" width="60" height="60" rx="30" fill="#F9BABA"/>
<path d="M36.0857 38.3793C37.2391 37.25 38.03 35.8026 38.3574 34.2219C38.6849 32.6412 38.534 30.9988 37.9241 29.5041C37.3143 28.0095 36.273 26.7304 34.9331 25.8301C33.5933 24.9297 32.0156 24.4488 30.4013 24.4488C28.7871 24.4488 27.2094 24.9297 25.8695 25.8301C24.5297 26.7304 23.4884 28.0095 22.8785 29.5041C22.2687 30.9988 22.1178 32.6412 22.4452 34.2219C22.7727 35.8026 23.5635 37.25 24.717 38.3793C22.7641 39.4174 21.1404 40.981 20.0295 42.8934C19.7915 43.3233 19.7319 43.8294 19.8633 44.3029C19.9948 44.7763 20.3068 45.1793 20.7323 45.425C21.1579 45.6707 21.6628 45.7396 22.1386 45.6168C22.6143 45.494 23.0229 45.1893 23.2763 44.7684C24.009 43.5305 25.0515 42.5048 26.3011 41.7923C27.5508 41.0798 28.9644 40.7051 30.4029 40.7051C31.8414 40.7051 33.255 41.0798 34.5047 41.7923C35.7543 42.5048 36.7968 43.5305 37.5295 44.7684C37.6501 44.9863 37.8129 45.1781 38.0085 45.3324C38.204 45.4867 38.4284 45.6005 38.6684 45.6672C38.9084 45.7338 39.1593 45.7519 39.4064 45.7205C39.6536 45.6891 39.8919 45.6088 40.1077 45.4842C40.3234 45.3596 40.5121 45.1933 40.6628 44.995C40.8136 44.7966 40.9233 44.5703 40.9855 44.3291C41.0478 44.0879 41.0613 43.8367 41.0254 43.5902C40.9895 43.3437 40.9048 43.1068 40.7763 42.8934C39.6645 40.9806 38.0398 39.4169 36.0857 38.3793ZM26.0263 32.5824C26.0263 31.7171 26.2829 30.8713 26.7637 30.1518C27.2444 29.4324 27.9277 28.8716 28.7271 28.5405C29.5265 28.2093 30.4062 28.1227 31.2549 28.2915C32.1035 28.4603 32.8831 28.877 33.4949 29.4889C34.1068 30.1007 34.5235 30.8803 34.6923 31.7289C34.8611 32.5776 34.7744 33.4573 34.4433 34.2567C34.1122 35.0561 33.5514 35.7394 32.832 36.2201C32.1125 36.7009 31.2666 36.9574 30.4013 36.9574C29.241 36.9574 28.1282 36.4965 27.3077 35.676C26.4873 34.8556 26.0263 33.7428 26.0263 32.5824ZM49.0279 34.0809C48.831 34.2289 48.6068 34.3367 48.3682 34.3981C48.1295 34.4595 47.8812 34.4732 47.6372 34.4385C47.3933 34.4038 47.1586 34.3214 46.9465 34.196C46.7345 34.0705 46.5492 33.9045 46.4013 33.7074C45.0998 31.9746 43.2998 30.6465 41.8185 30.3262C41.4247 30.241 41.0687 30.0312 40.8034 29.7278C40.5382 29.4245 40.3777 29.0438 40.3458 28.642C40.3139 28.2403 40.4122 27.839 40.6263 27.4976C40.8403 27.1562 41.1587 26.8928 41.5342 26.7465C42.0016 26.564 42.4183 26.2716 42.7489 25.8941C43.0795 25.5165 43.3143 25.0649 43.4334 24.5774C43.5526 24.0899 43.5526 23.5809 43.4334 23.0934C43.3143 22.606 43.0795 22.1543 42.7489 21.7768C42.4183 21.3992 42.0016 21.1068 41.5341 20.9244C41.0667 20.7419 40.5621 20.6747 40.0632 20.7284C39.5642 20.7821 39.0855 20.9553 38.6676 21.2331C38.2497 21.5109 37.9049 21.8853 37.6623 22.3246C37.5472 22.5472 37.3887 22.7445 37.1961 22.9049C37.0035 23.0652 36.7807 23.1852 36.5409 23.258C36.3011 23.3307 36.0492 23.3547 35.8 23.3284C35.5508 23.3021 35.3093 23.2262 35.09 23.105C34.8706 22.9838 34.6778 22.8199 34.5229 22.623C34.368 22.426 34.2541 22.2 34.188 21.9583C34.1219 21.7166 34.1049 21.464 34.1381 21.2157C34.1712 20.9673 34.2538 20.728 34.381 20.5121C34.845 19.6917 35.4727 18.9755 36.2251 18.4079C36.9776 17.8403 37.8387 17.4335 38.7549 17.2128C39.6712 16.992 40.6231 16.962 41.5515 17.1246C42.4798 17.2872 43.3649 17.639 44.1516 18.158C44.9382 18.6771 45.6098 19.3523 46.1245 20.1419C46.6393 20.9314 46.9861 21.8184 47.1436 22.7476C47.3011 23.6769 47.2659 24.6286 47.0401 25.5436C46.8143 26.4587 46.4027 27.3175 45.831 28.0668C47.2068 28.9833 48.4145 30.1297 49.4013 31.4559C49.6999 31.8535 49.8282 32.3534 49.7582 32.8457C49.6882 33.338 49.4255 33.7823 49.0279 34.0809ZM18.9842 30.3309C17.5029 30.6512 15.7029 31.9793 14.4013 33.7137C14.1019 34.1113 13.6568 34.3737 13.164 34.4432C12.6711 34.5126 12.1708 34.3834 11.7732 34.084C11.3756 33.7846 11.1132 33.3395 11.0438 32.8466C10.9743 32.3538 11.1035 31.8535 11.4029 31.4559C12.3901 30.1301 13.5978 28.9837 14.9732 28.0668C14.4015 27.3175 13.99 26.4587 13.7641 25.5436C13.5383 24.6286 13.5031 23.6769 13.6606 22.7476C13.8181 21.8184 14.165 20.9314 14.6797 20.1419C15.1944 19.3523 15.866 18.6771 16.6527 18.158C17.4394 17.639 18.3244 17.2872 19.2528 17.1246C20.1811 16.962 21.133 16.992 22.0493 17.2128C22.9656 17.4335 23.8267 17.8403 24.5791 18.4079C25.3316 18.9755 25.9592 19.6917 26.4232 20.5121C26.5504 20.728 26.633 20.9673 26.6662 21.2157C26.6993 21.464 26.6823 21.7166 26.6163 21.9583C26.5502 22.2 26.4363 22.426 26.2814 22.623C26.1264 22.8199 25.9336 22.9838 25.7142 23.105C25.4949 23.2262 25.2535 23.3021 25.0043 23.3284C24.7551 23.3547 24.5031 23.3307 24.2633 23.258C24.0235 23.1852 23.8007 23.0652 23.6081 22.9049C23.4155 22.7445 23.257 22.5472 23.142 22.3246C22.8993 21.8853 22.5545 21.5109 22.1366 21.2331C21.7187 20.9553 21.24 20.7821 20.7411 20.7284C20.2421 20.6747 19.7376 20.7419 19.2701 20.9244C18.8026 21.1068 18.386 21.3992 18.0554 21.7768C17.7248 22.1543 17.49 22.606 17.3708 23.0934C17.2517 23.5809 17.2517 24.0899 17.3708 24.5774C17.49 25.0649 17.7248 25.5165 18.0554 25.8941C18.3859 26.2716 18.8026 26.564 19.2701 26.7465C19.6456 26.8928 19.9639 27.1562 20.178 27.4976C20.392 27.839 20.4904 28.2403 20.4585 28.642C20.4266 29.0438 20.2661 29.4245 20.0008 29.7278C19.7355 30.0312 19.3796 30.241 18.9857 30.3262L18.9842 30.3309Z" fill="#731013"/>
</svg>
