<svg width="61" height="61" viewBox="0 0 61 61" fill="none" xmlns="http://www.w3.org/2000/svg">
<rect x="0.0664062" y="0.0825195" width="60" height="60" rx="30" fill="#F9BABA"/>
<path d="M48.1914 41.9575H47.5664V30.0825C47.5664 29.2537 47.2372 28.4589 46.6511 27.8728C46.0651 27.2868 45.2702 26.9575 44.4414 26.9575H36.9414V17.5825C36.9414 16.7537 36.6122 15.9589 36.0261 15.3728C35.4401 14.7868 34.6452 14.4575 33.8164 14.4575H18.8164C17.9876 14.4575 17.1927 14.7868 16.6067 15.3728C16.0206 15.9589 15.6914 16.7537 15.6914 17.5825V41.9575H15.0664C14.5691 41.9575 14.0922 42.1551 13.7406 42.5067C13.389 42.8583 13.1914 43.3352 13.1914 43.8325C13.1914 44.3298 13.389 44.8067 13.7406 45.1583C14.0922 45.51 14.5691 45.7075 15.0664 45.7075H48.1914C48.6887 45.7075 49.1656 45.51 49.5172 45.1583C49.8689 44.8067 50.0664 44.3298 50.0664 43.8325C50.0664 43.3352 49.8689 42.8583 49.5172 42.5067C49.1656 42.1551 48.6887 41.9575 48.1914 41.9575ZM43.8164 30.7075V41.9575H36.9414V30.7075H43.8164ZM19.4414 18.2075H33.1914V41.9575H31.3164V35.0825C31.3164 34.5852 31.1189 34.1083 30.7672 33.7567C30.4156 33.4051 29.9387 33.2075 29.4414 33.2075H23.1914C22.6941 33.2075 22.2172 33.4051 21.8656 33.7567C21.5139 34.1083 21.3164 34.5852 21.3164 35.0825V41.9575H19.4414V18.2075ZM27.5664 41.9575H25.0664V36.9575H27.5664V41.9575ZM21.3164 25.0825C21.3164 24.5852 21.5139 24.1083 21.8656 23.7567C22.2172 23.4051 22.6941 23.2075 23.1914 23.2075C25.2818 23.2075 27.3558 23.2075 29.4414 23.2075C29.9387 23.2075 30.4156 23.4051 30.7672 23.7567C31.1189 24.1083 31.3164 24.5852 31.3164 25.0825C31.3164 25.5798 31.1189 26.0567 30.7672 26.4083C30.4156 26.76 29.9387 26.9575 29.4414 26.9575C25.8992 26.9575 25.5646 26.9575 23.1914 26.9575C22.6941 26.9575 22.2172 26.76 21.8656 26.4083C21.5139 26.0567 21.3164 25.5798 21.3164 25.0825Z" fill="#731013"/>
</svg>
